Coordinates
version=1
nRows=19
nColumns=36
inDegrees=yes

Units are S.I. units (second, meters, Newtons, ...)
If the header above contains a line with 'inDegrees', this indicates whether rotational values are in degrees (yes) or radians (no).

endheader
time	pelvis_tilt	pelvis_list	pelvis_rotation	pelvis_tx	pelvis_ty	pelvis_tz	hip_flexion_r	hip_adduction_r	hip_rotation_r	knee_angle_r	knee_angle_r_beta	ankle_angle_r	subtalar_angle_r	mtp_angle_r	hip_flexion_l	hip_adduction_l	hip_rotation_l	knee_angle_l	knee_angle_l_beta	ankle_angle_l	subtalar_angle_l	mtp_angle_l	lumbar_extension	lumbar_bending	lumbar_rotation	arm_flex_r	arm_add_r	arm_rot_r	elbow_flex_r	pro_sup_r	arm_flex_l	arm_add_l	arm_rot_l	elbow_flex_l	pro_sup_l
      1.46250000	    -19.77151255	      1.95404472	     -0.31674154	     -0.89610173	      1.08767105	     -0.08088340	     46.64230726	      1.09361001	      6.00391171	     63.07453714	      1.10085835	     29.71629490	    -15.98430219	     -7.49999987	     45.19227609	      2.95334225	      2.99555892	     60.09530429	      1.04886092	     25.75709946	    -20.95437375	     -7.49999987	    -37.06909306	     -0.13922969	      4.06027409	     43.28333241	    -11.88685946	      8.03053270	     69.46323849	     87.58360298	     49.83862260	     -4.21349783	     16.32353759	     69.76009060	     80.09400468
      1.46666670	    -19.98289444	      2.01945056	     -0.37848935	     -0.88921414	      1.08598823	     -0.07917318	     45.88915282	      1.14736910	      6.20215963	     63.03561629	      1.10017905	     30.87128844	    -16.06527145	     -7.49999987	     44.71667793	      2.97591105	      2.88507840	     60.36452213	      1.05355966	     26.59454924	    -20.90033073	     -7.49999987	    -35.27952641	     -0.28942728	      3.97985566	     42.85533119	    -11.98779319	      8.73948754	     70.46971277	     86.52196796	     48.92620189	     -4.37601252	     17.09505609	     71.68206487	     78.63204235
      1.47083330	    -19.95139368	      2.03521529	     -0.61700874	     -0.87749683	      1.08490771	     -0.08297208	     44.79511401	      1.04022024	      6.25139762	     63.01653674	      1.09984605	     31.32119237	    -16.43151931	     -7.49999987	     43.71474756	      3.10959494	      2.84498112	     60.24957161	      1.05155340	     27.24307657	    -21.13912448	     -7.49999987	    -33.49027916	     -0.30022227	      4.05636363	     42.48696216	    -11.84088679	      9.00951873	     70.68603648	     86.55404929	     48.06991662	     -4.04719142	     17.48504611	     72.04157464	     78.62443692
      1.47500000	    -20.45829209	      2.03356180	     -0.89359047	     -0.86609328	      1.08221691	     -0.08629979	     44.22218590	      0.99976762	      6.57469220	     62.80711565	      1.09619096	     31.68739835	    -17.23814572	     -7.49999987	     43.19921943	      3.16409241	      2.57245335	     60.26773331	      1.05187038	     28.61331055	    -20.90215514	     -7.49999987	    -31.27466458	     -0.19670158	      4.05987114	     41.77598224	    -12.49835551	     10.44589396	     72.18168813	     86.73752474	     46.69506373	     -4.54351475	     18.20600475	     74.78126471	     78.28117404
      1.47916670	    -20.60584610	      2.03537167	     -1.07874007	     -0.86134505	      1.08549577	     -0.08562345	     43.28129719	      0.84954995	      6.67856078	     61.94628758	      1.08116668	     32.02605690	    -17.42175660	     -7.49999987	     42.27549387	      3.21419002	      2.49344748	     59.57499681	      1.03977985	     28.92115584	    -21.17318897	     -7.49999987	    -29.34258930	     -0.06783799	      4.17797642	     41.42604954	    -12.54312956	     10.71142937	     72.38861264	     86.75496805	     46.17261510	     -4.38566944	     18.46884726	     75.16946806	     78.26444562
      1.48333330	    -20.90374528	      1.91347311	     -1.17647350	     -0.85390294	      1.08750596	     -0.08645297	     42.48698190	      0.91438384	      6.71060241	     61.05430536	      1.06559865	     32.13616061	    -17.46631902	     -7.49999987	     41.56199762	      3.21543720	      2.60919154	     58.92019663	      1.02835143	     28.43466071	    -22.11985217	     -7.49999987	    -27.54013451	      0.20803849	      4.23081121	     40.88882607	    -13.40697872	     12.30605425	     73.60197455	     85.69032837	     45.66547445	     -4.76983731	     19.00827594	     76.41053651	     77.02052023
      1.48750000	    -21.20412128	      1.67710536	     -1.10749919	     -0.85224709	      1.09173300	     -0.07978568	     41.87786218	      1.35646272	      6.48705495	     60.07694220	      1.04854045	     32.31526079	    -17.33802988	     -7.49999987	     41.09216279	      2.84664149	      2.85905948	     57.96111534	      1.01161230	     27.90936420	    -22.42193159	     -7.49999987	    -26.04902694	      0.29953928	      4.25001099	     40.60989214	    -13.61303617	     13.02946805	     74.37130054	     85.72200199	     45.76323439	     -5.08949778	     19.64547016	     77.05012339	     76.84235187
      1.49166670	    -21.41384589	      1.58444163	     -1.06819696	     -0.84785862	      1.09538785	     -0.08085028	     41.37971644	      1.54986050	      6.38630397	     59.13934994	      1.03217637	     32.30435078	    -17.22128697	     -7.49999987	     40.62076082	      2.53687014	      2.78167315	     57.21134258	      0.99852630	     27.69673242	    -22.40862055	     -7.49999987	    -24.71594667	      0.19176576	      4.15898490	     40.72025236	    -13.59372131	     13.19910047	     74.59126555	     85.72848676	     45.98349510	     -4.97332923	     19.80904028	     77.29364413	     76.82994245
      1.49583330	    -21.36596230	      1.39936202	     -1.21992303	     -0.84024598	      1.10003545	     -0.08467865	     40.33989254	      1.68361855	      6.47068418	     57.79264485	      1.00867194	     31.57021648	    -17.30791581	     -7.49999987	     39.58083789	      2.46505157	      3.01952712	     56.05542144	      0.97835167	     26.53608987	    -23.34632619	     -7.49999987	    -23.73766519	      0.48237103	      4.22303665	     40.85833410	    -14.39804877	     14.71459287	     75.20286079	     85.74444219	     45.56996531	     -4.89032100	     20.48384880	     77.61163853	     76.57440168
      1.50000000	    -21.59200114	      1.33584819	     -1.32371769	     -0.83697676	      1.09914174	     -0.08402903	     39.96170957	      1.69513940	      6.36697243	     57.20706362	      0.99845162	     31.47649767	    -16.95821137	     -7.49999987	     39.26546028	      2.51437559	      3.13349385	     55.35936462	      0.96620318	     26.73210083	    -22.52993179	     -7.49999987	    -22.38593511	      0.48182714	      4.10164397	     40.95817925	    -14.54379171	     15.00529183	     75.47777618	     85.07661932	     45.58376434	     -4.80988304	     20.66948505	     77.86648456	     76.11083919
      1.50416670	    -21.75610762	      1.23425917	     -1.27833413	     -0.83575693	      1.10601868	     -0.08211342	     39.50541948	      1.77089759	      6.24912817	     56.18028462	      0.98053094	     30.91542966	    -17.26481020	     -7.49999987	     38.98865033	      2.42825601	      3.17300962	     54.70185172	      0.95472742	     26.04521287	    -22.61285273	     -7.49999987	    -21.42600505	      0.48867085	      4.01932661	     41.28361343	    -15.21459945	     16.48433030	     76.46938682	     85.06100108	     45.37936226	     -4.67018436	     21.07620686	     78.76028286	     75.74885247
      1.50833330	    -21.95099826	      1.30958587	     -1.22150397	     -0.82733353	      1.10651196	     -0.08235756	     38.79817950	      1.54547389	      6.01409571	     55.24685475	      0.96423952	     30.54312353	    -17.17205630	     -7.49999987	     38.55702517	      2.60370583	      3.24268372	     53.88601741	      0.94048842	     25.75778115	    -22.04129385	     -7.49999987	    -20.17299205	      0.35847367	      3.86735028	     41.43321505	    -15.23601654	     16.69915394	     76.72527526	     85.06376498	     45.15241173	     -4.31437480	     21.31182524	     79.01299464	     75.71601613
      1.51250000	    -22.00909914	      1.33279915	     -0.93890392	     -0.82127588	      1.11111426	     -0.08206882	     37.81553017	      1.36419229	      5.73193154	     53.95412383	      0.94167711	     29.84929987	    -17.41529778	     -7.49999987	     37.86883698	      2.61041705	      3.14866403	     53.06296561	      0.92612346	     25.24314820	    -21.18621747	     -7.49999987	    -18.87223765	      0.36648588	      3.72267310	     41.04561569	    -15.49716146	     17.41196390	     77.18323642	     85.08218584	     45.06222896	     -4.57437292	     21.74684377	     79.44732452	     75.63160343
      1.51666670	    -21.75512393	      1.25835462	     -0.65096524	     -0.81141262	      1.11496930	     -0.08329232	     36.09842888	      1.19452943	      5.49681737	     52.47278984	      0.91582295	     28.30726943	    -18.74966647	     -7.49999987	     36.59223272	      2.66690954	      3.41160178	     51.94308389	      0.90657784	     25.15799417	    -19.82655361	     -7.49999987	    -18.01830942	      0.47312765	      3.43746131	     40.90256997	    -16.03540627	     18.81304746	     77.76557407	     85.07874171	     45.40827500	     -5.29787518	     23.17847031	     80.02255075	     75.37207509
      1.52083330	    -21.66763340	      1.38354917	     -0.53578576	     -0.80558493	      1.12099189	     -0.08305881	     34.56292962	      0.87980499	      5.39945059	     50.51576413	      0.88166641	     26.92979467	    -19.81530054	     -7.49999987	     35.12987189	      2.83616662	      3.40270578	     50.07855972	      0.87403575	     24.89048972	    -18.69573833	     -7.49999987	    -16.76457314	      0.41569074	      3.43673536	     40.34340832	    -16.42719447	     19.44898846	     77.92402581	     84.65430179	     45.40852783	     -5.71295321	     24.08009306	     80.13646091	     74.87290015
      1.52500000	    -21.45183248	      1.34278935	     -0.13327815	     -0.79728356	      1.12496838	     -0.08108395	     32.86106471	      0.67263816	      5.03713882	     48.74179699	      0.85070484	     25.92278005	    -20.47117972	     -7.49999987	     33.57422418	      2.76013210	      3.56316691	     48.67287464	      0.84950192	     24.29094190	    -18.29308631	     -7.49999987	    -15.64304025	      0.45614652	      3.32330051	     39.90435264	    -16.63958414	     19.88430461	     77.81031099	     83.72988972	     45.52875542	     -6.03615567	     25.02277595	     79.84675382	     73.98932315
      1.52916670	    -21.86647625	      1.36692567	      0.09883671	     -0.78964731	      1.12666642	     -0.08081820	     32.13268308	      0.48366346	      4.74663041	     47.31341645	      0.82577490	     25.58258231	    -20.06724201	     -7.49999987	     32.80454141	      2.60600744	      3.36441909	     47.33166422	      0.82609338	     23.99352590	    -17.63071816	     -7.49999987	    -13.60001429	      0.35566043	      3.24743227	     39.08572830	    -16.68446521	     20.27161153	     77.76917501	     82.34338576	     44.96518839	     -6.23591411	     25.44973057	     79.63808584	     73.00047672
      1.53333330	    -21.23788154	      1.26972295	      0.38866129	     -0.78486830	      1.13569533	     -0.08047079	     30.09741641	      0.52079014	      4.58009959	     45.33196140	      0.79119198	     23.99391459	    -20.66201841	     -7.49999987	     31.00723836	      2.48279462	      3.46847867	     45.65633037	      0.79685329	     22.87425110	    -17.40711413	     -7.49999987	    -13.32665586	      0.32770762	      3.26938100	     38.81343764	    -16.92333426	     20.59848146	     78.12479920	     82.53364723	     45.32099263	     -6.57200624	     26.65518415	     79.50416080	     72.90340205
      1.53750000	    -21.36076273	      1.23989455	      0.66973980	     -0.77659080	      1.14128394	     -0.08079573	     29.06561439	      0.36081099	      4.36346398	     43.55129422	      0.76011348	     22.96738653	    -20.04171843	     -7.49999987	     29.85750463	      2.45348338	      3.43651841	     43.86089078	      0.76551696	     22.01187122	    -16.41755378	     -7.49999987	    -11.77591289	      0.37788701	      3.20968212	     37.94047836	    -17.03471895	     20.90622016	     78.24462259	     82.58776437	     44.73078551	     -6.75541524	     27.03468814	     79.30846373	     72.88351708
